<svg width="234" height="212" viewBox="0 0 234 212" fill="none" xmlns="http://www.w3.org/2000/svg">
<g filter="url(#filter0_d_4_37)">
<rect width="105" height="95" fill="#FB0303"/>
</g>
<g filter="url(#filter1_d_4_37)">
<rect x="125" width="105" height="95" fill="#FF9900"/>
</g>
<g filter="url(#filter2_d_4_37)">
<rect y="111" width="105" height="95" fill="#E900FD"/>
</g>
<g filter="url(#filter3_d_4_37)">
<rect x="125" y="111" width="105" height="95" fill="#061EF3"/>
</g>
<path d="M50.1996 53.2273H54.9723L57.799 56.892L59.8161 59.2784L64.6598 65.5H59.5462L56.2507 61.3239L54.8445 59.3352L50.1996 53.2273ZM65.3558 48.4545C65.3558 51.589 64.7687 54.2737 63.5945 56.5085C62.4297 58.7339 60.8388 60.4384 58.8217 61.6222C56.8142 62.8059 54.5367 63.3977 51.9893 63.3977C49.442 63.3977 47.1598 62.8059 45.1428 61.6222C43.1352 60.429 41.5443 58.7197 40.37 56.4943C39.2053 54.2595 38.6229 51.5795 38.6229 48.4545C38.6229 45.3201 39.2053 42.6402 40.37 40.4148C41.5443 38.1799 43.1352 36.4706 45.1428 35.2869C47.1598 34.1032 49.442 33.5114 51.9893 33.5114C54.5367 33.5114 56.8142 34.1032 58.8217 35.2869C60.8388 36.4706 62.4297 38.1799 63.5945 40.4148C64.7687 42.6402 65.3558 45.3201 65.3558 48.4545ZM60.0575 48.4545C60.0575 46.2481 59.7119 44.3873 59.0206 42.8722C58.3388 41.3475 57.3918 40.197 56.1797 39.4205C54.9676 38.6345 53.5708 38.2415 51.9893 38.2415C50.4079 38.2415 49.0111 38.6345 47.799 39.4205C46.5869 40.197 45.6352 41.3475 44.9439 42.8722C44.2621 44.3873 43.9212 46.2481 43.9212 48.4545C43.9212 50.661 44.2621 52.5265 44.9439 54.0511C45.6352 55.5663 46.5869 56.7169 47.799 57.5028C49.0111 58.2794 50.4079 58.6676 51.9893 58.6676C53.5708 58.6676 54.9676 58.2794 56.1797 57.5028C57.3918 56.7169 58.3388 55.5663 59.0206 54.0511C59.7119 52.5265 60.0575 50.661 60.0575 48.4545Z" fill="white"/>
<path d="M174.678 54.4489V54.0795C174.687 52.3655 174.848 51.0019 175.161 49.9886C175.483 48.9754 175.937 48.161 176.525 47.5455C177.112 46.9205 177.827 46.3475 178.669 45.8267C179.247 45.4669 179.763 45.0739 180.218 44.6477C180.682 44.2121 181.046 43.7292 181.311 43.1989C181.577 42.6591 181.709 42.0578 181.709 41.3949C181.709 40.6468 181.534 39.9981 181.184 39.4489C180.833 38.8996 180.36 38.4735 179.763 38.1705C179.176 37.8674 178.518 37.7159 177.789 37.7159C177.116 37.7159 176.477 37.8627 175.871 38.1562C175.275 38.4403 174.777 38.8759 174.38 39.4631C173.991 40.0407 173.774 40.7746 173.726 41.6648H168.669C168.717 39.8655 169.152 38.3598 169.976 37.1477C170.81 35.9356 171.908 35.0265 173.272 34.4205C174.645 33.8144 176.16 33.5114 177.817 33.5114C179.626 33.5114 181.217 33.8286 182.59 34.4631C183.972 35.0975 185.047 36.0019 185.814 37.1761C186.591 38.3409 186.979 39.7235 186.979 41.3239C186.979 42.4034 186.804 43.3693 186.453 44.2216C186.113 45.0739 185.625 45.8314 184.99 46.4943C184.356 47.1572 183.603 47.7491 182.732 48.2699C181.965 48.7434 181.335 49.2358 180.843 49.7472C180.36 50.2585 180 50.8598 179.763 51.5511C179.536 52.233 179.417 53.0758 179.408 54.0795V54.4489H174.678ZM177.15 63.3125C176.297 63.3125 175.563 63.0095 174.948 62.4034C174.332 61.7973 174.025 61.0587 174.025 60.1875C174.025 59.3352 174.332 58.6061 174.948 58C175.563 57.3939 176.297 57.0909 177.15 57.0909C177.992 57.0909 178.721 57.3939 179.337 58C179.962 58.6061 180.275 59.3352 180.275 60.1875C180.275 60.7652 180.128 61.2907 179.834 61.7642C179.55 62.2377 179.171 62.6165 178.698 62.9006C178.234 63.1752 177.718 63.3125 177.15 63.3125Z" fill="white"/>
<path d="M54.7628 144.909L54.294 165.449H49.7202L49.2656 144.909H54.7628ZM52.0071 174.312C51.1454 174.312 50.4067 174.009 49.7912 173.403C49.1851 172.797 48.8821 172.059 48.8821 171.188C48.8821 170.335 49.1851 169.606 49.7912 169C50.4067 168.394 51.1454 168.091 52.0071 168.091C52.8499 168.091 53.5791 168.394 54.1946 169C54.8196 169.606 55.1321 170.335 55.1321 171.188C55.1321 171.765 54.9853 172.291 54.6918 172.764C54.4077 173.238 54.0289 173.616 53.5554 173.901C53.0914 174.175 52.5753 174.312 52.0071 174.312Z" fill="white"/>
<path d="M184.539 144.909H189.809V163.915C189.809 165.998 189.317 167.83 188.332 169.412C187.357 170.993 185.984 172.229 184.213 173.119C182.442 174 180.373 174.44 178.005 174.44C175.628 174.44 173.555 174 171.784 173.119C170.013 172.229 168.64 170.993 167.664 169.412C166.689 167.83 166.201 165.998 166.201 163.915V144.909H171.471V163.474C171.471 164.687 171.736 165.766 172.267 166.713C172.806 167.66 173.564 168.403 174.539 168.943C175.515 169.473 176.67 169.739 178.005 169.739C179.341 169.739 180.496 169.473 181.471 168.943C182.456 168.403 183.214 167.66 183.744 166.713C184.274 165.766 184.539 164.687 184.539 163.474V144.909Z" fill="white"/>
<defs>
<filter id="filter0_d_4_37" x="0" y="0" width="109" height="101" filterUnits="userSpaceOnUse" color-interpolation-filters="sRGB">
<feFlood flood-opacity="0" result="BackgroundImageFix"/>
<feColorMatrix in="SourceAlpha" type="matrix" values="0 0 0 0 0 0 0 0 0 0 0 0 0 0 0 0 0 0 127 0" result="hardAlpha"/>
<feOffset dx="4" dy="6"/>
<feComposite in2="hardAlpha" operator="out"/>
<feColorMatrix type="matrix" values="0 0 0 0 0 0 0 0 0 0 0 0 0 0 0 0 0 0 0.25 0"/>
<feBlend mode="normal" in2="BackgroundImageFix" result="effect1_dropShadow_4_37"/>
<feBlend mode="normal" in="SourceGraphic" in2="effect1_dropShadow_4_37" result="shape"/>
</filter>
<filter id="filter1_d_4_37" x="125" y="0" width="109" height="101" filterUnits="userSpaceOnUse" color-interpolation-filters="sRGB">
<feFlood flood-opacity="0" result="BackgroundImageFix"/>
<feColorMatrix in="SourceAlpha" type="matrix" values="0 0 0 0 0 0 0 0 0 0 0 0 0 0 0 0 0 0 127 0" result="hardAlpha"/>
<feOffset dx="4" dy="6"/>
<feComposite in2="hardAlpha" operator="out"/>
<feColorMatrix type="matrix" values="0 0 0 0 0 0 0 0 0 0 0 0 0 0 0 0 0 0 0.25 0"/>
<feBlend mode="normal" in2="BackgroundImageFix" result="effect1_dropShadow_4_37"/>
<feBlend mode="normal" in="SourceGraphic" in2="effect1_dropShadow_4_37" result="shape"/>
</filter>
<filter id="filter2_d_4_37" x="0" y="111" width="109" height="101" filterUnits="userSpaceOnUse" color-interpolation-filters="sRGB">
<feFlood flood-opacity="0" result="BackgroundImageFix"/>
<feColorMatrix in="SourceAlpha" type="matrix" values="0 0 0 0 0 0 0 0 0 0 0 0 0 0 0 0 0 0 127 0" result="hardAlpha"/>
<feOffset dx="4" dy="6"/>
<feComposite in2="hardAlpha" operator="out"/>
<feColorMatrix type="matrix" values="0 0 0 0 0 0 0 0 0 0 0 0 0 0 0 0 0 0 0.25 0"/>
<feBlend mode="normal" in2="BackgroundImageFix" result="effect1_dropShadow_4_37"/>
<feBlend mode="normal" in="SourceGraphic" in2="effect1_dropShadow_4_37" result="shape"/>
</filter>
<filter id="filter3_d_4_37" x="125" y="111" width="109" height="101" filterUnits="userSpaceOnUse" color-interpolation-filters="sRGB">
<feFlood flood-opacity="0" result="BackgroundImageFix"/>
<feColorMatrix in="SourceAlpha" type="matrix" values="0 0 0 0 0 0 0 0 0 0 0 0 0 0 0 0 0 0 127 0" result="hardAlpha"/>
<feOffset dx="4" dy="6"/>
<feComposite in2="hardAlpha" operator="out"/>
<feColorMatrix type="matrix" values="0 0 0 0 0 0 0 0 0 0 0 0 0 0 0 0 0 0 0.25 0"/>
<feBlend mode="normal" in2="BackgroundImageFix" result="effect1_dropShadow_4_37"/>
<feBlend mode="normal" in="SourceGraphic" in2="effect1_dropShadow_4_37" result="shape"/>
</filter>
</defs>
</svg>
