<svg width="313" height="116" viewBox="0 0 313 116" fill="none" xmlns="http://www.w3.org/2000/svg">
<g filter="url(#filter0_d_17_4)">
<rect width="309" height="110" fill="#061EF3"/>
</g>
<path d="M98.1386 40.12H95.6306L87.8786 69H78.7966L75.1866 55.624L71.6146 69H62.5326L54.7806 40.12H52.2726V38.6H82.9386V40.12H80.1266L86.9666 65.618L93.8066 40.12H89.6646V38.6H98.1386V40.12ZM74.3126 52.28L71.0446 40.12H63.8626L70.7026 65.618L74.3126 52.28ZM103.936 69L100.402 65.466V49.734L103.936 46.2H118.528L122.062 49.734V55.966L118.528 59.5H109.142V67.48H117.882L121.074 64.288L122.252 65.466L118.718 69H103.936ZM109.142 47.72V57.98H113.322V47.72H109.142ZM137.648 67.48V69H129.782L126.248 65.466V37.08H123.588V35.56H131.454L134.988 39.094V67.48H137.648ZM152.645 53.8V47.72H148.655V67.48H155.875L158.877 64.478L160.055 65.656L156.711 69H143.449L139.915 65.466V49.734L143.449 46.2H157.471L160.245 48.974V53.8H152.645ZM185.114 50.114V65.086L181.2 69H167.216L163.302 65.086V50.114L167.216 46.2H181.2L185.114 50.114ZM172.422 47.72V67.48H175.994V47.72H172.422ZM230.898 67.48V69H222.462L219.308 65.846V47.72H216.648L213.988 50.38V67.48H216.268V69H205.248V47.72H202.588L199.928 50.38V67.48H202.208V69H188.148V67.48H191.188V47.72H188.148V46.2H196.394L199.092 48.86L201.752 46.2H210.454L213.152 48.86L215.812 46.2H224.324L227.858 49.734V67.48H230.898ZM237.455 69L233.921 65.466V49.734L237.455 46.2H252.047L255.581 49.734V55.966L252.047 59.5H242.661V67.48H251.401L254.593 64.288L255.771 65.466L252.237 69H237.455ZM242.661 47.72V57.98H246.841V47.72H242.661Z" fill="white"/>
<defs>
<filter id="filter0_d_17_4" x="0" y="0" width="313" height="116" filterUnits="userSpaceOnUse" color-interpolation-filters="sRGB">
<feFlood flood-opacity="0" result="BackgroundImageFix"/>
<feColorMatrix in="SourceAlpha" type="matrix" values="0 0 0 0 0 0 0 0 0 0 0 0 0 0 0 0 0 0 127 0" result="hardAlpha"/>
<feOffset dx="4" dy="6"/>
<feComposite in2="hardAlpha" operator="out"/>
<feColorMatrix type="matrix" values="0 0 0 0 0 0 0 0 0 0 0 0 0 0 0 0 0 0 0.25 0"/>
<feBlend mode="normal" in2="BackgroundImageFix" result="effect1_dropShadow_17_4"/>
<feBlend mode="normal" in="SourceGraphic" in2="effect1_dropShadow_17_4" result="shape"/>
</filter>
</defs>
</svg>
